HIERARCHY
ROOT Hips
{
	OFFSET 0.000000 0.000000 0.000000
	CHANNELS 6 Xposition Yposition Zposition Zrotation Yrotation Xrotation 
	JOINT LHipJoint
	{
		OFFSET 0.000000 0.000000 0.000000
		CHANNELS 3 Zrotation Yrotation Xrotation
		JOINT LeftUpLeg
		{
			OFFSET 1.363060 -1.794630 0.839290
			CHANNELS 3 Zrotation Yrotation Xrotation
			JOINT LeftLeg
			{
				OFFSET 2.448110 -6.726130 0.000000
				CHANNELS 3 Zrotation Yrotation Xrotation
				JOINT LeftFoot
				{
					OFFSET 2.562200 -7.039590 0.000000
					CHANNELS 3 Zrotation Yrotation Xrotation
					JOINT LeftToeBase
					{
						OFFSET 0.157640 -0.433110 2.322550
						CHANNELS 3 Zrotation Yrotation Xrotation
						End Site
						{
							OFFSET 0.000000 0.000000 0.000000
						}
					}
				}
			}
		}
	}
	JOINT RHipJoint
	{
		OFFSET 0.000000 0.000000 0.000000
		CHANNELS 3 Zrotation Yrotation Xrotation
		JOINT RightUpLeg
		{
			OFFSET -1.305520 -1.794630 0.839290
			CHANNELS 3 Zrotation Yrotation Xrotation
			JOINT RightLeg
			{
				OFFSET -2.542530 -6.985550 0.000000
				CHANNELS 3 Zrotation Yrotation Xrotation
				JOINT RightFoot
				{
					OFFSET -2.568260 -7.056230 0.000000
					CHANNELS 3 Zrotation Yrotation Xrotation
					JOINT RightToeBase
					{
						OFFSET -0.164730 -0.452590 2.363150
						CHANNELS 3 Zrotation Yrotation Xrotation
						End Site
						{
							OFFSET 0.000000 0.000000 0.000000
						}
					}
				}
			}
		}
	}
	JOINT LowerBack
	{
		OFFSET 0.000000 0.000000 0.000000
		CHANNELS 3 Zrotation Yrotation Xrotation
		JOINT Spine
		{
			OFFSET 0.028270 2.035590 -0.193380
			CHANNELS 3 Zrotation Yrotation Xrotation
			JOINT Spine1
			{
				OFFSET 0.056720 2.048850 -0.042750
				CHANNELS 3 Zrotation Yrotation Xrotation
				JOINT Neck
				{
					OFFSET 0.000000 0.000000 0.000000
					CHANNELS 3 Zrotation Yrotation Xrotation
					JOINT Neck1
					{
						OFFSET -0.054170 1.746240 0.172020
						CHANNELS 3 Zrotation Yrotation Xrotation
						JOINT Head
						{
							OFFSET 0.104070 1.761360 -0.123970
							CHANNELS 3 Zrotation Yrotation Xrotation
							End Site
							{
								OFFSET 0.000000 0.000000 0.000000
							}
						}
					}
				}
				JOINT LeftShoulder
				{
					OFFSET 0.000000 0.000000 0.000000
					CHANNELS 3 Zrotation Yrotation Xrotation
					JOINT LeftArm
					{
						OFFSET 3.362410 1.200890 -0.311210
						CHANNELS 3 Zrotation Yrotation Xrotation
						JOINT LeftForeArm
						{
							OFFSET 4.983000 -0.000000 -0.000000
							CHANNELS 3 Zrotation Yrotation Xrotation
							JOINT LeftHand
							{
								OFFSET 3.483560 -0.000000 -0.000000
								CHANNELS 3 Zrotation Yrotation Xrotation
								JOINT LeftFingerBase
								{
									OFFSET 0.000000 0.000000 0.000000
									CHANNELS 3 Zrotation Yrotation Xrotation
									JOINT LeftHandIndex1
									{
										OFFSET 0.715260 -0.000000 -0.000000
										CHANNELS 3 Zrotation Yrotation Xrotation
										End Site
										{
											OFFSET 0.000000 0.000000 0.000000
										}
									}
								}
								JOINT LThumb
								{
									OFFSET 0.000000 0.000000 0.000000
									CHANNELS 3 Zrotation Yrotation Xrotation
									End Site
									{
										OFFSET 0.000000 0.000000 0.000000
									}
								}
							}
						}
					}
				}
				JOINT RightShoulder
				{
					OFFSET 0.000000 0.000000 0.000000
					CHANNELS 3 Zrotation Yrotation Xrotation
					JOINT RightArm
					{
						OFFSET -3.136600 1.374050 -0.404650
						CHANNELS 3 Zrotation Yrotation Xrotation
						JOINT RightForeArm
						{
							OFFSET -5.241900 -0.000000 -0.000000
							CHANNELS 3 Zrotation Yrotation Xrotation
							JOINT RightHand
							{
								OFFSET -3.444170 -0.000000 -0.000000
								CHANNELS 3 Zrotation Yrotation Xrotation
								JOINT RightFingerBase
								{
									OFFSET 0.000000 0.000000 0.000000
									CHANNELS 3 Zrotation Yrotation Xrotation
									JOINT RightHandIndex1
									{
										OFFSET -0.622530 -0.000000 -0.000000
										CHANNELS 3 Zrotation Yrotation Xrotation
										End Site
										{
											OFFSET 0.000000 0.000000 0.000000
										}
									}
								}
								JOINT RThumb
								{
									OFFSET 0.000000 0.000000 0.000000
									CHANNELS 3 Zrotation Yrotation Xrotation
									End Site
									{
										OFFSET 0.000000 0.000000 0.000000
									}
								}
							}
						}
					}
				}
			}
		}
	}
}
MOTION
Frames: 10
Frame Time: 0.008333
0.362971 17.464327 -35.216691 -3.301195 -4.880514 20.214002 1.179898 -0.408591 -1.158708 -5.806592 -5.490812 -52.396185 15.423254 21.638076 76.085953 1.458273 -4.283315 7.668667 0.462100 -4.360300 -12.092500 0.925811 -2.033065 3.202057 23.084362 3.646186 -0.562344 0.990387 -4.272565 14.699194 1.889328 -7.765338 0.399193 -1.308600 7.246400 -20.447500 -0.576024 0.320260 9.916559 1.957316 0.263640 -2.462994 7.508866 0.816760 -5.942601 -11.744737 -0.850807 -3.757778 4.630556 0.239347 4.446306 4.435000 -0.111700 3.833600 -3.245540 3.039191 -3.901237 -88.547319 24.819562 25.282135 45.156349 -51.206478 -30.316024 -0.677378 -3.669266 -1.065706 19.330504 21.999184 9.048600 -7.125000 0.000000 0.000000 -10.611400 56.827500 -3.099900 1.593700 -1.053426 -1.598681 80.919102 -1.241043 51.574160 -62.596951 54.282279 -45.260468 1.817429 0.237972 -8.263773 -14.179101 17.394930 -4.872200 7.125000 0.000000 0.000000 7.869300 -12.165400 6.093400 
0.358333 17.449150 -35.039632 -3.623098 -5.759535 20.729617 1.321104 -0.420843 -1.268971 -5.699161 -4.717917 -53.513723 15.133679 21.612750 75.307248 1.727835 -5.389706 7.311111 0.471000 -4.401500 -12.209100 0.948851 -2.079858 3.232155 22.907938 4.426406 -0.070522 1.036761 -4.188240 14.457110 1.787258 -7.487251 0.958714 -1.471100 7.664600 -21.699900 -0.310000 1.058701 9.628314 1.718258 1.236751 -2.413863 6.386266 1.264016 -5.643429 -11.136230 -1.338353 -4.177154 4.815160 -0.438033 4.181448 4.440700 -0.391700 3.887100 -3.177312 3.045824 -3.886377 -87.062169 25.697532 26.985080 47.570321 -52.353164 -32.635361 -0.653638 -3.576661 -1.595342 19.555031 20.869638 8.756900 -7.125000 0.000000 0.000000 -9.801500 55.633600 -2.575700 1.404273 -1.060612 -1.570938 82.025653 -0.777156 50.585446 -65.016750 54.985447 -47.558320 1.851777 0.218409 -8.138324 -14.085772 17.508083 -4.887800 7.125000 0.000000 0.000000 7.914500 -12.037400 6.150300 
0.365816 17.430180 -34.854458 -3.793524 -6.268194 21.009147 1.361443 -0.422265 -1.333182 -5.571672 -4.443603 -54.268364 14.748372 21.566259 74.228030 1.873734 -5.914527 6.903908 0.560500 -4.795300 -13.325800 0.935261 -2.144025 3.309994 22.715884 4.780157 0.644911 1.116989 -3.945952 13.815231 1.720611 -7.317269 2.003370 -1.512400 7.766400 -22.006900 -0.568025 1.253453 9.736936 1.741192 1.468745 -2.474145 6.681108 1.413042 -5.998939 -11.237349 -1.174322 -3.917183 4.775729 -0.230407 3.937039 4.432000 -0.282100 3.710500 -3.011791 3.042773 -3.978828 -87.441639 27.452687 26.961190 50.062265 -53.415542 -35.004915 -0.635854 -3.453242 -2.043581 19.577169 19.572457 8.293100 -7.125000 0.000000 0.000000 -9.179100 54.184200 -2.085300 1.304440 -1.038204 -1.498629 81.774023 -1.042444 50.932335 -67.829145 55.801981 -50.292425 1.904603 0.248806 -8.247300 -14.147427 17.403402 -4.891000 7.125000 0.000000 0.000000 7.832900 -12.155200 6.066300 
0.382047 17.425859 -34.656110 -3.865265 -6.270668 21.261956 1.565385 -0.523462 -1.573318 -5.659452 -4.684573 -54.592489 14.271610 21.462974 72.908815 1.964210 -6.160063 6.486114 0.569300 -4.832400 -13.431100 1.120620 -2.206535 3.334413 22.360588 4.709489 1.179889 1.193137 -3.750149 13.211488 1.593161 -7.029585 3.045417 -1.622800 8.031800 -22.810600 1.439090 3.547646 9.949396 0.848334 4.572564 -1.866965 1.682871 2.757004 -2.655494 -7.859429 -3.988255 -10.384277 4.849786 -4.059339 3.826692 3.675100 -1.960600 5.547100 -3.260240 2.909420 -3.496386 -80.746618 22.040618 34.902287 51.096316 -53.879429 -36.057585 -0.584671 -3.429114 -2.889047 19.525580 18.771768 7.990400 -7.125000 0.000000 0.000000 -8.913100 53.322200 -1.835900 1.162184 -1.199481 -1.683693 85.431938 2.721730 43.826770 -70.094854 56.300527 -52.244182 1.944393 0.139623 -8.017355 -14.392194 17.993991 -5.167600 7.125000 0.000000 0.000000 7.678200 -11.422000 6.061700 
0.400279 17.428177 -34.444271 -3.758610 -6.732818 21.351129 1.538060 -0.515774 -1.551382 -5.897276 -4.690430 -54.894016 13.707565 21.327213 71.341773 2.042651 -6.320579 6.120497 0.607400 -4.988300 -13.875200 1.115742 -2.302892 3.521533 21.780042 4.778777 1.901912 1.277191 -3.469371 12.541522 1.299132 -6.233333 4.140422 -1.547200 7.851300 -22.263300 0.901208 3.677287 11.075071 0.846110 4.716561 -2.267304 1.938889 2.853855 -4.897567 -8.178784 -4.284906 -9.072049 4.980481 -4.438460 3.621569 3.754300 -2.174900 5.397100 -3.134462 2.810518 -3.678849 -80.851976 25.386906 34.817992 53.903293 -54.996936 -38.818661 -0.538406 -3.254987 -3.447186 18.912568 16.837868 7.024300 -7.125000 0.000000 0.000000 -8.810200 51.035900 -1.318800 1.040244 -1.012372 -1.658754 85.219319 0.852455 44.130113 -72.585536 56.887062 -54.516199 2.033888 0.069137 -8.331046 -14.402103 19.030677 -5.505100 7.125000 0.000000 0.000000 7.664500 -10.271500 6.232500 
0.420409 17.432498 -34.227690 -3.739683 -7.297890 21.607437 1.513440 -0.523930 -1.590086 -6.046551 -4.633533 -55.199327 13.111685 21.177049 69.676315 2.125073 -6.473691 5.767827 0.578200 -4.869100 -13.535700 1.096644 -2.381361 3.652391 21.213355 4.863734 2.592439 1.365178 -3.177094 11.827631 1.012792 -5.487201 5.509011 -1.470700 7.663500 -21.696700 0.441213 3.547209 11.083304 0.918019 4.502069 -2.451006 2.561974 2.796446 -5.926267 -8.731781 -3.407322 -7.361696 4.947240 -3.266843 3.488725 3.966900 -1.643300 4.839500 -2.996525 2.848674 -3.816099 -81.751179 28.301802 33.709062 56.731212 -56.060820 -41.421047 -0.415879 -3.430897 -4.646514 19.796392 19.155537 8.208700 -7.125000 0.000000 0.000000 -8.845800 53.753600 -1.915400 0.942345 -0.962529 -1.571205 84.599145 -0.155861 45.561159 -74.062443 57.272659 -55.843406 2.101245 0.054807 -8.328711 -14.795466 19.498073 -5.801700 7.125000 0.000000 0.000000 7.389500 -9.729000 6.086700 
0.443701 17.426280 -34.016484 -3.708412 -7.421096 21.889569 1.481843 -0.555391 -1.677793 -6.031520 -4.990635 -55.389786 12.536258 21.035426 68.069720 2.200921 -6.597474 5.410704 0.461100 -4.355700 -12.079600 1.087880 -2.425806 3.711351 20.833775 4.806544 3.211901 1.432707 -2.916129 11.147553 0.950184 -5.423640 6.944752 -1.510400 7.761700 -21.992500 0.334832 3.102916 10.211045 1.015889 3.903722 -2.381472 3.201032 2.534244 -5.524714 -9.572200 -3.118522 -6.061673 5.241814 -2.823477 2.829813 4.349300 -1.391400 4.078700 -2.877199 3.053346 -3.844273 -83.030757 30.098589 31.944755 59.281914 -57.027195 -43.873575 -0.224266 -3.459933 -6.619913 19.556164 19.931276 8.343000 -7.125000 0.000000 0.000000 -9.481000 54.515900 -2.231800 0.841344 -1.004828 -1.417885 83.903450 -0.172602 47.597832 -74.371185 57.423294 -56.023012 2.205897 0.042700 -7.337090 -16.238320 19.995261 -6.506700 7.125000 0.000000 0.000000 6.415200 -9.067400 5.358600 
0.465201 17.412685 -33.800430 -3.724428 -7.694933 21.936372 1.352489 -0.536834 -1.638159 -5.895890 -5.268035 -55.344640 12.002936 20.882005 66.565400 2.291436 -6.780866 5.084924 0.446100 -4.285300 -11.880700 1.009972 -2.505192 3.849084 20.531233 4.974286 4.062029 1.504012 -2.608816 10.369277 0.954002 -5.583914 8.514592 -1.594100 7.963900 -22.604400 -0.938913 2.478541 10.997475 1.434150 2.996120 -2.736273 5.762714 2.238255 -7.649226 -11.037911 -2.159833 -4.241855 5.121162 -1.475198 2.710062 4.538000 -0.805800 3.587100 -2.600459 2.950628 -4.207422 -86.554435 33.955510 28.302437 61.760043 -57.812124 -46.195708 -0.081005 -3.340739 -8.439845 18.689780 19.296114 7.695000 -7.125000 0.000000 0.000000 -10.114100 53.564500 -2.147200 0.866962 -0.805110 -1.291593 81.770603 -1.935752 49.753162 -77.553337 58.220630 -59.108105 2.171930 0.058331 -10.845296 -13.806637 20.413491 -5.735200 7.125000 0.000000 0.000000 8.036700 -8.805700 6.780600 
0.486806 17.409207 -33.563720 -3.848239 -8.263152 22.121650 1.304289 -0.544848 -1.679412 -5.885843 -5.278803 -55.110613 11.461517 20.689456 65.038223 2.403620 -7.041247 4.838963 0.613400 -5.012600 -13.944600 1.013916 -2.584031 3.939626 20.095388 5.439362 4.845359 1.577879 -2.346011 9.646040 0.933092 -5.744866 10.114237 -1.637700 8.066700 -22.917000 -1.289334 2.500856 10.820043 1.479261 2.980875 -2.796340 6.210742 2.292075 -8.022044 -11.248733 -1.780223 -3.284021 5.117690 -1.038535 2.484701 4.580600 -0.587400 3.192200 -2.495853 2.992421 -4.298212 -87.349479 35.554252 27.157758 63.313933 -58.377496 -47.752081 0.066301 -3.217601 -9.926118 17.419979 18.545553 6.864400 -7.125000 0.000000 0.000000 -11.128700 52.437100 -2.057800 0.821596 -0.794296 -1.205709 81.247676 -2.760996 50.581724 -78.868487 58.540024 -60.211594 2.255208 0.052349 -10.995340 -14.529064 21.019584 -6.207700 7.125000 0.000000 0.000000 7.557100 -8.082000 6.477700 
0.514841 17.412369 -33.295602 -4.070658 -8.602092 22.312695 1.493667 -0.654348 -1.918628 -6.062772 -5.443795 -54.387081 10.909099 20.428750 63.491708 2.505451 -7.262017 4.785031 0.812300 -5.751300 -16.064500 1.264042 -2.659442 3.964782 19.583190 5.753665 5.442761 1.605846 -2.312045 9.426909 0.854059 -5.793877 11.474985 -1.893400 8.640400 -24.676800 1.570021 4.796720 10.311116 0.331163 6.138145 -2.085464 -0.365568 3.612165 -3.658701 -7.228054 -4.439959 -9.454815 5.409636 -4.781689 2.460335 3.909000 -2.197000 4.840000 -2.956447 3.148000 -3.566271 -78.271612 28.758397 35.668664 62.926480 -58.435715 -47.643231 0.226123 -3.239440 -12.243707 16.991593 18.278546 6.613900 -7.125000 0.000000 0.000000 -11.483700 52.121000 -2.035300 0.600172 -1.189274 -1.394019 86.016848 0.978464 43.362295 -79.583630 58.608183 -60.533295 2.248516 -0.130531 -11.161436 -14.455373 22.050264 -6.493300 7.125000 0.000000 0.000000 7.702100 -6.862100 6.789900 
